<svg width="23" height="14" viewBox="0 0 23 14" fill="none" xmlns="http://www.w3.org/2000/svg">
<path d="M8.82587 7.05505L7.89696 4C7.38781 4.00994 6.83404 4.01482 6.23567 4.01464C5.89249 4.01464 5.34715 4.00976 4.59965 4C4.41715 4.43978 4.27488 4.77699 4.17287 5.01161L3.82189 5.81024L0.528804 12.9447L0 13.9997C0.71755 13.99 1.23809 13.9851 1.56161 13.9851C1.7399 13.9851 2.22425 13.99 3.01465 13.9997C3.4093 12.9643 3.79085 12.0165 4.1593 11.1563H7.36488C7.71632 12.2455 7.98532 13.193 8.17189 13.9989C8.86448 13.9892 9.38923 13.9843 9.74613 13.9843C9.90321 13.9843 10.3493 13.9892 11.0845 13.9989L10.7155 12.9304L8.82587 7.05505ZM4.92957 9.02662L5.38771 7.94314C5.5827 7.4849 5.82011 6.89746 6.09996 6.18081C6.14676 6.35651 6.41584 7.30476 6.9072 9.02556L4.92957 9.02662ZM12.1393 4L12.1456 4.94505C12.1456 7.05984 12.0233 10.0782 11.7787 14C12.5677 13.9902 13.0895 13.9854 13.3441 13.9854L14.6486 14C14.6486 13.1598 14.6613 12.1451 14.6869 10.9559C14.7125 9.7666 14.7551 8.48825 14.8147 7.12081C14.8615 6.13919 14.9233 5.09892 15 4C14.2015 4.00994 13.7449 4.01482 13.6303 4.01464C13.3796 4.01464 12.8826 4.00976 12.1393 4Z" fill="#784600"/>
<path d="M19.9374 1.64595C19.9726 1.65707 20.0047 1.6764 20.031 1.70235C20.0573 1.72829 20.0771 1.76011 20.0887 1.79518L20.6917 3.63281L22.5775 4.30166C22.6241 4.31816 22.6643 4.34905 22.6923 4.38987C22.7202 4.43069 22.7344 4.47933 22.7329 4.52877C22.7314 4.57821 22.7142 4.62589 22.6839 4.66493C22.6535 4.70397 22.6115 4.73235 22.5639 4.74598L20.7168 5.26491L20.145 7.07473C20.1299 7.12158 20.1004 7.16248 20.0607 7.19156C20.021 7.22064 19.9731 7.23643 19.9239 7.23665C19.8747 7.23688 19.8266 7.22153 19.7867 7.19282C19.7467 7.1641 19.7168 7.12348 19.7013 7.07676L19.0976 5.23981L17.2674 4.65915C17.2208 4.64407 17.1801 4.61467 17.151 4.57513C17.122 4.5356 17.1062 4.48793 17.1059 4.43889C17.1055 4.38986 17.1206 4.34195 17.149 4.30197C17.1774 4.262 17.2176 4.23198 17.264 4.21619L19.0732 3.60704L19.645 1.7979C19.6637 1.73903 19.705 1.68999 19.7598 1.6615C19.8146 1.63302 19.8785 1.62743 19.9374 1.64595ZM15.7873 0.00842614C15.8118 0.0166591 15.834 0.0306135 15.8521 0.0491337C15.8701 0.067654 15.8835 0.0902072 15.8911 0.114926L16.235 1.21452L17.3658 1.59778C17.3989 1.60862 17.4277 1.62981 17.4479 1.65825C17.4681 1.68668 17.4787 1.72085 17.478 1.75572C17.4773 1.7906 17.4654 1.82433 17.4441 1.85195C17.4228 1.87957 17.3932 1.89962 17.3597 1.90914L16.2336 2.24425L15.866 3.34859C15.8551 3.38132 15.8342 3.40977 15.8062 3.42984C15.7781 3.44991 15.7445 3.46056 15.71 3.46026C15.6755 3.45995 15.642 3.44872 15.6143 3.42816C15.5867 3.4076 15.5662 3.37879 15.556 3.34587L15.2121 2.24628L14.1165 1.91525C14.0835 1.90544 14.0544 1.88539 14.0334 1.85798C14.0125 1.83056 14.0008 1.79721 14 1.76272C13.9993 1.72824 14.0095 1.6944 14.0292 1.6661C14.0489 1.6378 14.0771 1.61649 14.1097 1.60525L15.2141 1.21723L15.5811 0.111534C15.5878 0.0912064 15.5985 0.0724091 15.6125 0.0562194C15.6266 0.0400297 15.6436 0.0267657 15.6628 0.0171875C15.6819 0.00760929 15.7028 0.00190505 15.7242 0.000401612C15.7455 -0.00110182 15.767 0.0016251 15.7873 0.00842614Z" fill="#784600"/>
</svg>
