<?xml version="1.0" standalone="no"?><!DOCTYPE svg PUBLIC "-//W3C//DTD SVG 1.1//EN" "http://www.w3.org/Graphics/SVG/1.1/DTD/svg11.dtd"><svg t="1761908883986" class="icon" viewBox="0 0 1024 1024" version="1.1" xmlns="http://www.w3.org/2000/svg" p-id="4514" xmlns:xlink="http://www.w3.org/1999/xlink" width="200" height="200"><path d="M232.727273 485.402597m6.64935 0l598.441559 0q6.649351 0 6.64935 6.649351l0 285.922078q0 6.649351-6.64935 6.649351l-598.441559 0q-6.649351 0-6.64935-6.649351l0-285.922078q0-6.649351 6.64935-6.649351Z" fill="#FFEB9A" p-id="4515"></path><path d="M827.844156 482.077922L452.155844 162.909091s-98.71626 33.246753-156.25974 123.012987c-57.536831 89.766234-66.493506 196.155844-66.493507 196.155844h598.441559z" fill="#FF5A78" p-id="4516"></path><path d="M259.324675 638.337662m6.649351 0l571.844156 0q6.649351 0 6.64935 6.649351l0 53.194805q0 6.649351-6.64935 6.649351l-571.844156 0q-6.649351 0-6.649351-6.649351l0-53.194805q0-6.649351 6.649351-6.649351Z" fill="#FF5A78" p-id="4517"></path><path d="M259.324675 598.441558m6.649351 0l571.844156 0q6.649351 0 6.64935 6.649351l0 26.597403q0 6.649351-6.64935 6.64935l-571.844156 0q-6.649351 0-6.649351-6.64935l0-26.597403q0-6.649351 6.649351-6.649351Z" fill="#6B0A0C" p-id="4518"></path><path d="M409.314078 110.731636a19.948052 19.948052 0 0 1 19.003844 3.584l428.883117 355.74026c5.585455 4.634597 7.979221 11.66961 6.96187 18.352208 0.159584 1.196883 0.252675 2.413714 0.252675 3.650493V777.974026a26.597403 26.597403 0 0 1-26.597402 26.597403H179.532468a26.597403 26.597403 0 0 1-26.597403-26.597403V492.051948c0-1.210182 0.086442-2.400416 0.239377-3.570701a20.147532 20.147532 0 0 1-0.232728-2.619844l0.731429-0.019948v-0.013299l-0.731429 0.019948v-0.019948L152.935065 485.78826v-0.119689l-0.006649-0.352415a148.081039 148.081039 0 0 1 0.039896-5.518961c0.073143-3.69039 0.265974-8.976623 0.731428-15.592727 0.930909-13.218909 2.97226-31.837091 7.360831-53.779949 8.757195-43.772675 27.03626-101.469091 65.323221-155.927272 38.134026-54.238753 83.575688-90.032208 119.415689-112.274286a382.557091 382.557091 0 0 1 44.803324-23.950961 269.657766 269.657766 0 0 1 13.365195-5.592104c1.595844-0.61839 2.859221-1.083844 3.763532-1.403013l1.077195-0.379013 0.332468-0.106389 0.09974-0.039897 0.046546-0.013298 0.013298-0.00665c0.013299 0.026597 0.232727 0.664935 4.774234 14.395845l-4.760935-14.395845zM192.831169 764.675325h631.688312V505.350649H192.831169v259.324676z m214.089143-610.00478a342.807273 342.807273 0 0 0-40.088935 21.450806c-32.488727 20.147532-73.488623 52.516571-107.812572 101.336104-34.171013 48.600104-50.801039 100.624623-58.840104 140.8A393.295792 393.295792 0 0 0 193.629091 465.454545h595.55574l-377.284156-312.938389c-1.502753 0.638338-3.17174 1.343169-4.973714 2.14774z" fill="#6B0A0C" p-id="4519"></path><path d="M561.497766 302.306078m-68.61662-40.725371a79.792208 79.792208 0 1 0 137.23324 81.450742 79.792208 79.792208 0 1 0-137.23324-81.450742Z" fill="#D82524" p-id="4520"></path><path d="M554.522597 274.970597m-17.154155-10.181342a19.948052 19.948052 0 1 0 34.30831 20.362685 19.948052 19.948052 0 1 0-34.30831-20.362685Z" fill="#FFFFFF" p-id="4521"></path><path d="M645.412571 179.672104c23.665039-4.614649 50.781091-2.327273 71.773091 10.126961a19.948052 19.948052 0 0 1-20.360311 34.310649c-10.452779-6.197195-26.983065-8.551065-43.766026-5.272935-9.761247 1.901714-18.046338 5.385974-24.356572 9.741299 34.290701 31.205403 43.154286 83.203325 18.564987 124.635428-28.113455 47.363325-89.307429 62.969351-136.677402 34.862546-47.369974-28.113455-62.982649-89.300779-34.869195-136.677403 24.296727-40.933403 73.295792-58.148571 116.729351-43.92561 13.897143-15.180468 33.831896-24.070649 52.962077-27.800935z m-53.374337 71.168a59.844156 59.844156 0 1 0-61.087585 102.931948 59.844156 59.844156 0 0 0 61.087585-102.931948z" fill="#6B0A0C" p-id="4522"></path></svg>