<svg width="14" height="14" viewBox="0 0 14 14" fill="none" xmlns="http://www.w3.org/2000/svg">
<path d="M6.99967 1.12109C4.40468 1.12109 2.30103 3.22479 2.30103 5.81956C2.30103 8.41456 5.98349 12.3867 5.98349 12.3867C6.54468 13.0417 7.46376 13.0455 8.01972 12.3829C8.01972 12.3829 11.6988 8.41481 11.6988 5.81956C11.6988 3.22455 9.59516 1.12109 6.99967 1.12109ZM6.99967 7.84355C5.79932 7.84355 4.82618 6.87042 4.82618 5.66956C4.82618 4.46917 5.79932 3.49604 6.99967 3.49604C8.20055 3.49604 9.17369 4.46917 9.17369 5.66956C9.17369 6.87043 8.20055 7.84355 6.99967 7.84355Z" fill="#333333"/>
</svg>
