<svg width="10" height="12" viewBox="0 0 10 12" fill="none" xmlns="http://www.w3.org/2000/svg">
<path d="M4.69864 0C2.10365 0 0 2.10369 0 4.69846C0 7.29347 3.68247 11.2656 3.68247 11.2656C4.24365 11.9206 5.16273 11.9244 5.7187 11.2618C5.7187 11.2618 9.3978 7.29371 9.3978 4.69846C9.39779 2.10346 7.29414 0 4.69864 0ZM4.69864 6.72246C3.49829 6.72246 2.52515 5.74932 2.52515 4.54847C2.52515 3.34808 3.49829 2.37494 4.69864 2.37494C5.89952 2.37494 6.87266 3.34808 6.87266 4.54847C6.87266 5.74934 5.89952 6.72246 4.69864 6.72246Z" fill="#FFDC81"/>
</svg>
