<svg width="50" height="50" viewBox="0 0 50 50" fill="none" xmlns="http://www.w3.org/2000/svg">
<path opacity="0.7" d="M25.4999 43.15L45.1999 23.45C45.3999 23.24 45.64 23.072 45.9059 22.9561C46.1718 22.8402 46.4583 22.7787 46.7483 22.7752C47.0384 22.7716 47.3262 22.8262 47.5949 22.9355C47.8636 23.0449 48.1077 23.2069 48.3128 23.4121C48.5179 23.6172 48.68 23.8613 48.7893 24.1299C48.8987 24.3986 48.9532 24.6865 48.9497 24.9765C48.9462 25.2666 48.8846 25.553 48.7687 25.819C48.6528 26.0849 48.4849 26.325 48.2749 26.525L25.5915 49.2084L2.90819 26.525C2.69141 26.3269 2.51701 26.0868 2.39551 25.8194C2.27401 25.552 2.20793 25.2628 2.20125 24.9692C2.19456 24.6755 2.24742 24.3836 2.35663 24.111C2.46584 23.8383 2.62914 23.5906 2.83668 23.3828C3.04423 23.175 3.29171 23.0113 3.56421 22.9017C3.83671 22.7922 4.12858 22.7389 4.42222 22.7452C4.71586 22.7515 5.00518 22.8172 5.27274 22.9383C5.54031 23.0594 5.78056 23.2335 5.97902 23.45L25.504 43.15H25.4999Z" fill="#FF7B89" fill-opacity="0.5"/>
<path d="M25.5417 21.375L45.1959 1.70834C45.3959 1.49827 45.636 1.33035 45.9019 1.21446C46.1679 1.09856 46.4543 1.03704 46.7443 1.0335C47.0344 1.02996 47.3223 1.08449 47.5909 1.19386C47.8596 1.30324 48.1037 1.46526 48.3088 1.67038C48.5139 1.8755 48.676 2.11959 48.7853 2.38827C48.8947 2.65695 48.9492 2.94479 48.9457 3.23486C48.9422 3.52492 48.8806 3.81135 48.7647 4.07728C48.6489 4.34322 48.4809 4.58328 48.2709 4.78334L25.5875 27.4708L2.90837 4.78334C2.68727 4.58631 2.50874 4.3462 2.38372 4.07773C2.25871 3.80926 2.18983 3.51809 2.18132 3.22207C2.17281 2.92604 2.22484 2.63139 2.33423 2.35619C2.44362 2.08098 2.60805 1.83101 2.81746 1.6216C3.02687 1.41219 3.27684 1.24775 3.55205 1.13837C3.82725 1.02898 4.1219 0.976945 4.41793 0.985457C4.71396 0.993968 5.00513 1.06284 5.27359 1.18786C5.54206 1.31288 5.78217 1.49141 5.9792 1.71251L25.5417 21.375Z" fill="#FF7B89"/>
</svg>
