<?xml version="1.0" standalone="no"?><!DOCTYPE svg PUBLIC "-//W3C//DTD SVG 1.1//EN" "http://www.w3.org/Graphics/SVG/1.1/DTD/svg11.dtd"><svg t="1761909209799" class="icon" viewBox="0 0 1024 1024" version="1.1" xmlns="http://www.w3.org/2000/svg" p-id="6579" xmlns:xlink="http://www.w3.org/1999/xlink" width="200" height="200"><path d="M777.908 1011.5H246.092c-62.395 0-121.054-24.298-165.174-68.418C36.798 898.963 12.5 840.303 12.5 777.908V246.094c0-62.395 24.298-121.056 68.417-165.176S183.697 12.5 246.092 12.5h531.816c62.395 0 121.055 24.298 165.174 68.418 44.12 44.12 68.418 102.781 68.418 165.176v531.814c0 62.395-24.298 121.055-68.418 165.174-44.119 44.12-102.779 68.418-165.174 68.418z m-531.816-889c-68.149 0-123.592 55.444-123.592 123.594v531.814c0 68.148 55.443 123.592 123.592 123.592h531.816c68.148 0 123.592-55.443 123.592-123.592V246.094c0-68.15-55.443-123.594-123.592-123.594H246.092z" fill="#ffffff" p-id="6580"></path><path d="M429.248 532.986m-129.738 0a129.738 129.738 0 1 0 259.476 0 129.738 129.738 0 1 0-259.476 0Z" fill="#ffffff" p-id="6581"></path><path d="M671.412 414.356m-53.079 0a53.079 53.079 0 1 0 106.158 0 53.079 53.079 0 1 0-106.158 0Z" fill="#ffffff" p-id="6582"></path></svg>